<svg width="248" height="133" viewBox="0 0 248 133" fill="none" xmlns="http://www.w3.org/2000/svg">
<g filter="url(#filter0_d)">
<rect width="244" height="129" rx="2" fill="white"/>
</g>
<path d="M95.0004 99.4317V55M87.6837 107.429V55V107.429ZM90.61 107.429V55V107.429Z" stroke="#222222" stroke-width="1.7" stroke-miterlimit="10"/>
<path d="M100.122 99.4317V55" stroke="#222222" stroke-width="3.7" stroke-miterlimit="10"/>
<path d="M105.975 99.4317V55" stroke="#222222" stroke-width="7.7" stroke-miterlimit="10"/>
<path d="M111.097 99.4317V55" stroke="#222222" stroke-width="1.7" stroke-miterlimit="10"/>
<path d="M116.95 99.4317V55" stroke="#222222" stroke-width="5.7" stroke-miterlimit="10"/>
<path d="M121.34 99.4317V55" stroke="#222222" stroke-width="1.7" stroke-miterlimit="10"/>
<path d="M124.998 99.4317V55" stroke="#222222" stroke-width="3.7" stroke-miterlimit="10"/>
<path d="M165.239 99.4317V55M131.583 99.4317V55V99.4317ZM138.899 99.4317V55V99.4317ZM141.826 99.4317V55V99.4317ZM146.216 99.4317V55V99.4317ZM152.069 99.4317V55V99.4317ZM154.996 107.397V55V107.397ZM157.922 107.397V55V107.397ZM160.849 99.4317V55V99.4317Z" stroke="#222222" stroke-width="1.7" stroke-miterlimit="10"/>
<path d="M172.556 99.4317V55" stroke="#222222" stroke-width="5.7" stroke-miterlimit="10"/>
<path d="M176.945 99.4317V55" stroke="#222222" stroke-width="1.7" stroke-miterlimit="10"/>
<path d="M182.798 99.4317V55" stroke="#222222" stroke-width="5.7" stroke-miterlimit="10"/>
<path d="M188.652 99.4317V55" stroke="#222222" stroke-width="1.7" stroke-miterlimit="10"/>
<path d="M206.943 99.4317V55M192.31 99.4317V55V99.4317ZM198.163 99.4317V55V99.4317ZM202.553 99.4317V55V99.4317Z" stroke="#222222" stroke-width="3.7" stroke-miterlimit="10"/>
<path d="M225.235 107.397V55M212.064 99.4317V55V99.4317ZM216.455 99.4317V55V99.4317ZM222.308 107.397V55V107.397Z" stroke="#222222" stroke-width="1.7" stroke-miterlimit="10"/>
<path d="M74 104.556V103.359C75.1141 103.249 75.8919 103.065 76.3323 102.808C76.7726 102.55 77.102 101.942 77.3184 100.981H78.5359V113.356H76.8893V104.556H74V104.556Z" fill="#222222"/>
<path d="M94.0094 110.562C94.3895 109.77 95.131 109.049 96.2344 108.402L97.881 107.438C98.6187 107.004 99.1356 106.633 99.4329 106.326C99.9015 105.844 100.136 105.294 100.136 104.674C100.136 103.949 99.9216 103.374 99.4932 102.949C99.0641 102.522 98.4926 102.309 97.7782 102.309C96.7205 102.309 95.9891 102.716 95.5833 103.528C95.3656 103.964 95.2464 104.566 95.2232 105.338H93.655C93.6713 104.256 93.8695 103.374 94.2465 102.691C94.9152 101.488 96.0951 100.886 97.7882 100.886C99.1939 100.886 100.221 101.271 100.871 102.04C101.519 102.81 101.844 103.665 101.844 104.609C101.844 105.604 101.497 106.454 100.806 107.161C100.406 107.571 99.6895 108.069 98.6545 108.653L97.4802 109.314C96.9194 109.626 96.4797 109.924 96.1597 110.207C95.5883 110.711 95.2288 111.269 95.0789 111.883H101.783V113.358H93.3545C93.4116 112.284 93.6299 111.351 94.01 110.558V110.562H94.0094Z" fill="#222222"/>
<path d="M104.447 112.488C103.793 111.681 103.466 110.699 103.466 109.541H105.077C105.146 110.345 105.295 110.93 105.523 111.294C105.923 111.947 106.646 112.274 107.692 112.274C108.504 112.274 109.156 112.054 109.647 111.615C110.139 111.175 110.385 110.608 110.385 109.913C110.385 109.057 110.126 108.459 109.609 108.117C109.092 107.775 108.373 107.605 107.452 107.605C107.349 107.605 107.245 107.607 107.139 107.609C107.033 107.613 106.926 107.617 106.818 107.622V106.243C106.978 106.259 107.112 106.272 107.221 106.278C107.33 106.284 107.447 106.287 107.573 106.287C108.15 106.287 108.625 106.194 108.996 106.009C109.648 105.684 109.974 105.106 109.974 104.273C109.974 103.654 109.756 103.177 109.322 102.841C108.887 102.505 108.382 102.337 107.805 102.337C106.775 102.337 106.064 102.685 105.669 103.379C105.452 103.761 105.329 104.304 105.301 105.01H103.774C103.774 104.085 103.957 103.298 104.323 102.649C104.952 101.493 106.058 100.914 107.641 100.914C108.893 100.914 109.862 101.195 110.548 101.76C111.235 102.324 111.577 103.141 111.577 104.212C111.577 104.975 111.375 105.594 110.968 106.069C110.717 106.364 110.391 106.596 109.99 106.764C110.636 106.943 111.141 107.289 111.503 107.801C111.866 108.313 112.048 108.939 112.048 109.68C112.048 110.866 111.662 111.832 110.89 112.578C110.117 113.324 109.023 113.698 107.606 113.698C106.156 113.69 105.102 113.29 104.448 112.483V112.488H104.447Z" fill="#222222"/>
<path d="M119.116 113.362V110.324H113.731V108.797L119.356 100.9H120.66V108.962H122.469V110.324H120.66V113.362H119.116ZM119.09 108.963V103.318L115.155 108.963H119.09Z" fill="#222222"/>
<path d="M125.694 110.193C125.798 111.083 126.206 111.699 126.921 112.04C127.287 112.213 127.709 112.301 128.189 112.301C129.104 112.301 129.781 112.007 130.221 111.416C130.661 110.826 130.881 110.172 130.881 109.455C130.881 108.587 130.62 107.916 130.097 107.441C129.574 106.967 128.946 106.73 128.215 106.73C127.682 106.73 127.227 106.834 126.847 107.042C126.468 107.25 126.142 107.539 125.874 107.91L124.537 107.832L125.471 101.141H131.85V102.651H126.628L126.105 106.105C126.391 105.885 126.663 105.72 126.92 105.61C127.377 105.419 127.906 105.324 128.505 105.324C129.631 105.324 130.586 105.692 131.369 106.426C132.152 107.16 132.543 108.092 132.543 109.219C132.543 110.394 132.185 111.429 131.467 112.327C130.749 113.223 129.604 113.671 128.033 113.671C127.032 113.671 126.148 113.386 125.38 112.817C124.611 112.247 124.18 111.372 124.089 110.191H125.694V110.193Z" fill="#222222"/>
<path d="M141.769 101.964C142.309 102.685 142.579 103.427 142.579 104.191H141.052C140.961 103.699 140.815 103.314 140.615 103.036C140.243 102.516 139.681 102.255 138.926 102.255C138.063 102.255 137.377 102.659 136.868 103.466C136.36 104.273 136.077 105.429 136.02 106.933C136.373 106.407 136.82 106.014 137.357 105.753C137.849 105.522 138.398 105.406 139.004 105.406C140.032 105.406 140.929 105.738 141.696 106.404C142.462 107.07 142.845 108.061 142.845 109.38C142.845 110.509 142.482 111.509 141.756 112.379C141.03 113.25 139.995 113.686 138.652 113.686C137.504 113.686 136.512 113.245 135.678 112.363C134.843 111.48 134.426 109.995 134.426 107.905C134.426 106.361 134.612 105.051 134.984 103.974C135.699 101.915 137.004 100.885 138.901 100.885C140.274 100.878 141.23 101.233 141.769 101.959V101.964H141.769ZM140.611 111.466C141.015 110.913 141.215 110.261 141.215 109.509C141.215 108.872 141.036 108.266 140.676 107.691C140.316 107.116 139.661 106.827 138.712 106.827C138.049 106.827 137.468 107.051 136.967 107.496C136.467 107.941 136.217 108.612 136.217 109.509C136.217 110.296 136.445 110.957 136.9 111.493C137.354 112.028 137.984 112.295 138.79 112.295C139.601 112.295 140.209 112.014 140.612 111.465V111.466H140.611Z" fill="#222222"/>
<path d="M153.189 101.142V102.505C152.794 102.891 152.27 103.566 151.615 104.526C150.961 105.486 150.381 106.523 149.879 107.634C149.382 108.715 149.005 109.702 148.747 110.593C148.581 111.165 148.367 112.088 148.104 113.36H146.398C146.786 110.988 147.643 108.628 148.97 106.28C149.753 104.903 150.577 103.714 151.44 102.714H144.649V101.142H153.189Z" fill="#222222"/>
<path d="M161.785 106.089C161.334 105.626 161.108 105.024 161.108 104.284C161.108 103.358 161.438 102.562 162.101 101.897C162.763 101.231 163.703 100.899 164.919 100.899C166.095 100.899 167.018 101.213 167.685 101.84C168.353 102.467 168.686 103.201 168.686 104.04C168.686 104.815 168.493 105.443 168.104 105.923C167.887 106.195 167.549 106.462 167.093 106.721C167.603 106.959 168.005 107.231 168.298 107.538C168.842 108.116 169.116 108.868 169.116 109.794C169.116 110.888 168.753 111.816 168.027 112.576C167.301 113.336 166.275 113.717 164.949 113.717C163.755 113.717 162.743 113.389 161.918 112.732C161.092 112.075 160.679 111.122 160.679 109.872C160.679 109.138 160.855 108.503 161.211 107.968C161.566 107.433 162.09 107.024 162.788 106.74C162.356 106.555 162.02 106.333 161.779 106.089H161.785V106.089ZM166.768 111.71C167.24 111.319 167.476 110.736 167.476 109.961C167.476 109.157 167.232 108.547 166.747 108.129C166.261 107.713 165.637 107.505 164.878 107.505C164.14 107.505 163.539 107.717 163.073 108.142C162.607 108.567 162.374 109.157 162.374 109.908C162.374 110.557 162.587 111.116 163.014 111.588C163.439 112.06 164.098 112.295 164.99 112.295C165.707 112.287 166.3 112.088 166.775 111.703L166.768 111.71ZM166.483 105.563C166.864 105.178 167.056 104.719 167.056 104.185C167.056 103.722 166.872 103.295 166.509 102.907C166.142 102.519 165.587 102.324 164.84 102.324C164.097 102.324 163.562 102.519 163.232 102.907C162.901 103.294 162.735 103.75 162.735 104.272C162.735 104.857 162.949 105.315 163.377 105.645C163.805 105.976 164.309 106.141 164.891 106.141C165.571 106.149 166.106 105.956 166.487 105.571L166.483 105.563Z" fill="#222222"/>
<path d="M172.687 110.347C172.732 111.209 173.062 111.806 173.673 112.135C173.988 112.308 174.341 112.396 174.736 112.396C175.474 112.396 176.102 112.084 176.623 111.462C177.142 110.841 177.511 109.578 177.728 107.674C177.385 108.223 176.961 108.611 176.455 108.832C175.95 109.055 175.405 109.166 174.822 109.166C173.64 109.166 172.704 108.794 172.014 108.048C171.325 107.302 170.981 106.342 170.981 105.169C170.981 104.043 171.322 103.051 172.002 102.195C172.683 101.338 173.685 100.912 175.012 100.912C176.801 100.912 178.036 101.727 178.714 103.358C179.093 104.255 179.28 105.376 179.28 106.724C179.28 108.244 179.055 109.591 178.603 110.764C177.854 112.719 176.585 113.695 174.796 113.695C173.596 113.695 172.684 113.377 172.062 112.741C171.438 112.105 171.127 111.305 171.127 110.346H172.703H172.687V110.347ZM176.704 107.185C177.209 106.778 177.463 106.066 177.463 105.049C177.463 104.136 177.235 103.457 176.78 103.008C176.327 102.561 175.748 102.337 175.044 102.337C174.291 102.337 173.692 102.592 173.248 103.103C172.806 103.615 172.584 104.298 172.584 105.154C172.584 105.962 172.779 106.605 173.167 107.082C173.555 107.559 174.177 107.797 175.028 107.797C175.635 107.797 176.191 107.589 176.696 107.182L176.704 107.185Z" fill="#222222"/>
<path d="M188.791 102.92C189.339 103.943 189.614 105.346 189.614 107.129C189.614 108.818 189.366 110.216 188.868 111.321C188.148 112.907 186.971 113.699 185.336 113.699C183.861 113.699 182.763 113.051 182.043 111.755C181.444 110.672 181.143 109.22 181.143 107.398C181.143 105.986 181.323 104.775 181.683 103.762C182.357 101.875 183.578 100.933 185.344 100.933C186.939 100.933 188.087 101.592 188.791 102.917V102.92ZM187.239 111.199C187.715 110.481 187.952 109.146 187.952 107.19C187.952 105.778 187.781 104.616 187.438 103.706C187.094 102.795 186.428 102.339 185.438 102.339C184.527 102.339 183.861 102.772 183.44 103.637C183.019 104.502 182.809 105.776 182.809 107.46C182.809 108.726 182.944 109.745 183.213 110.515C183.625 111.689 184.33 112.276 185.326 112.276C186.131 112.276 186.767 111.921 187.244 111.203L187.239 111.199Z" fill="#222222"/>
<path d="M192.515 104.556V103.359C193.629 103.249 194.407 103.065 194.848 102.808C195.288 102.55 195.617 101.942 195.834 100.981H197.051V113.356H195.405V104.556H192.517H192.515V104.556Z" fill="#222222"/>
<path d="M202.282 110.562C202.663 109.77 203.405 109.049 204.507 108.402L206.154 107.438C206.892 107.004 207.409 106.633 207.707 106.326C208.174 105.844 208.408 105.294 208.408 104.674C208.408 103.949 208.194 103.374 207.765 102.949C207.338 102.522 206.766 102.309 206.052 102.309C204.994 102.309 204.263 102.716 203.856 103.528C203.639 103.964 203.519 104.566 203.496 105.338H201.927C201.944 104.256 202.141 103.374 202.519 102.691C203.187 101.488 204.368 100.886 206.061 100.886C207.467 100.886 208.494 101.271 209.143 102.04C209.791 102.81 210.116 103.665 210.116 104.609C210.116 105.604 209.77 106.454 209.078 107.161C208.679 107.571 207.961 108.069 206.927 108.653L205.752 109.314C205.192 109.626 204.752 109.924 204.432 110.207C203.86 110.711 203.5 111.269 203.351 111.883H210.056V113.358H201.627C201.693 112.284 201.912 111.351 202.293 110.558L202.282 110.562Z" fill="#222222"/>
<path d="M212.986 106.089C212.534 105.626 212.309 105.024 212.309 104.284C212.309 103.358 212.639 102.562 213.301 101.897C213.964 101.231 214.904 100.899 216.12 100.899C217.295 100.899 218.218 101.213 218.887 101.84C219.553 102.467 219.888 103.201 219.888 104.04C219.888 104.815 219.693 105.443 219.306 105.923C219.087 106.195 218.75 106.462 218.294 106.721C218.804 106.959 219.207 107.231 219.498 107.538C220.043 108.116 220.317 108.868 220.317 109.794C220.317 110.888 219.953 111.816 219.228 112.576C218.501 113.336 217.476 113.717 216.15 113.717C214.955 113.717 213.945 113.389 213.118 112.732C212.293 112.075 211.879 111.122 211.879 109.872C211.879 109.138 212.057 108.503 212.412 107.968C212.766 107.433 213.292 107.024 213.989 106.74C213.558 106.555 213.221 106.333 212.98 106.089H212.986V106.089ZM217.97 111.71C218.441 111.319 218.676 110.736 218.676 109.961C218.676 109.157 218.434 108.547 217.948 108.129C217.463 107.713 216.839 107.505 216.079 107.505C215.341 107.505 214.74 107.717 214.273 108.142C213.807 108.567 213.575 109.157 213.575 109.908C213.575 110.557 213.788 111.116 214.213 111.588C214.64 112.06 215.298 112.295 216.189 112.295C216.908 112.287 217.499 112.088 217.976 111.703L217.97 111.71ZM217.684 105.563C218.065 105.178 218.256 104.719 218.256 104.185C218.256 103.722 218.074 103.295 217.71 102.907C217.343 102.519 216.787 102.324 216.041 102.324C215.299 102.324 214.763 102.519 214.432 102.907C214.101 103.294 213.935 103.75 213.935 104.272C213.935 104.857 214.15 105.315 214.577 105.645C215.006 105.976 215.511 106.141 216.091 106.141C216.773 106.149 217.3 105.956 217.687 105.571L217.684 105.563Z" fill="#222222"/>
<path d="M44.497 108.083C44.497 101.167 58 83.8749 58 66.5831C58 49.2914 47.9338 49.2914 47.9338 42.375C47.9338 36.5053 51.3709 32 51.3709 32H23.8742C23.8742 32 27.3114 36.5053 27.3114 42.375C27.3114 49.2917 17 49.2917 17 66.5831C17 83.8749 30.7482 101.167 30.7482 108.083C30.7482 109.812 30.3186 110.893 29.6726 111.542H23.8742V115H51.3709V111.542H45.5673C44.9265 110.893 44.497 109.812 44.497 108.083Z" fill="#222222"/>
<defs>
<filter id="filter0_d" x="0" y="0" width="248" height="133" filterUnits="userSpaceOnUse" color-interpolation-filters="sRGB">
<feFlood flood-opacity="0" result="BackgroundImageFix"/>
<feColorMatrix in="SourceAlpha" type="matrix" values="0 0 0 0 0 0 0 0 0 0 0 0 0 0 0 0 0 0 127 0"/>
<feOffset dx="2" dy="2"/>
<feGaussianBlur stdDeviation="1"/>
<feColorMatrix type="matrix" values="0 0 0 0 0 0 0 0 0 0 0 0 0 0 0 0 0 0 0.25 0"/>
<feBlend mode="normal" in2="BackgroundImageFix" result="effect1_dropShadow"/>
<feBlend mode="normal" in="SourceGraphic" in2="effect1_dropShadow" result="shape"/>
</filter>
</defs>
</svg>
