<svg width="248" height="133" viewBox="0 0 248 133" fill="none" xmlns="http://www.w3.org/2000/svg">
<g filter="url(#filter0_d)">
<rect width="244" height="129" rx="2" fill="white"/>
</g>
<path d="M95.0004 99.6912V56M87.6837 107.555V56V107.555ZM90.61 107.555V56V107.555Z" stroke="#222222" stroke-width="1.7" stroke-miterlimit="10"/>
<path d="M100.122 99.6912V56" stroke="#222222" stroke-width="3.7" stroke-miterlimit="10"/>
<path d="M105.975 99.6912V56" stroke="#222222" stroke-width="7.7" stroke-miterlimit="10"/>
<path d="M111.097 99.6912V56" stroke="#222222" stroke-width="1.7" stroke-miterlimit="10"/>
<path d="M116.95 99.6912V56" stroke="#222222" stroke-width="5.7" stroke-miterlimit="10"/>
<path d="M121.34 99.6912V56" stroke="#222222" stroke-width="1.7" stroke-miterlimit="10"/>
<path d="M124.998 99.6912V56" stroke="#222222" stroke-width="3.7" stroke-miterlimit="10"/>
<path d="M165.239 99.6912V56M131.583 99.6912V56V99.6912ZM138.9 99.6912V56V99.6912ZM141.826 99.6912V56V99.6912ZM146.216 99.6912V56V99.6912ZM152.069 99.6912V56V99.6912ZM154.996 107.524V56V107.524ZM157.922 107.524V56V107.524ZM160.849 99.6912V56V99.6912Z" stroke="#222222" stroke-width="1.7" stroke-miterlimit="10"/>
<path d="M172.556 99.6912V56" stroke="#222222" stroke-width="5.7" stroke-miterlimit="10"/>
<path d="M176.945 99.6912V56" stroke="#222222" stroke-width="1.7" stroke-miterlimit="10"/>
<path d="M182.798 99.6912V56" stroke="#222222" stroke-width="5.7" stroke-miterlimit="10"/>
<path d="M188.652 99.6912V56" stroke="#222222" stroke-width="1.7" stroke-miterlimit="10"/>
<path d="M206.943 99.6912V56M192.31 99.6912V56V99.6912ZM198.163 99.6912V56V99.6912ZM202.553 99.6912V56V99.6912Z" stroke="#222222" stroke-width="3.7" stroke-miterlimit="10"/>
<path d="M225.235 107.524V56M212.064 99.6912V56V99.6912ZM216.455 99.6912V56V99.6912ZM222.308 107.524V56V107.524Z" stroke="#222222" stroke-width="1.7" stroke-miterlimit="10"/>
<path d="M74 104.73V103.553C75.1141 103.445 75.8919 103.264 76.3323 103.011C76.7726 102.758 77.102 102.159 77.3184 101.215H78.5359V113.384H76.8893V104.73H74V104.73Z" fill="#222222"/>
<path d="M94.0094 110.636C94.3895 109.857 95.131 109.148 96.2344 108.512L97.881 107.564C98.6187 107.137 99.1356 106.772 99.4329 106.471C99.9015 105.997 100.136 105.456 100.136 104.846C100.136 104.133 99.9216 103.568 99.4932 103.149C99.0641 102.73 98.4926 102.52 97.7782 102.52C96.7205 102.52 95.9891 102.92 95.5833 103.719C95.3656 104.148 95.2464 104.74 95.2232 105.499H93.655C93.6713 104.435 93.8695 103.568 94.2465 102.896C94.9152 101.713 96.0951 101.121 97.7882 101.121C99.1939 101.121 100.221 101.499 100.871 102.256C101.519 103.013 101.844 103.854 101.844 104.782C101.844 105.761 101.497 106.596 100.806 107.291C100.406 107.695 99.6895 108.185 98.6545 108.759L97.4802 109.408C96.9194 109.715 96.4797 110.008 96.1597 110.287C95.5883 110.782 95.2288 111.331 95.0789 111.934H101.783V113.385H93.3545C93.4116 112.33 93.6299 111.411 94.01 110.632V110.636H94.0094Z" fill="#222222"/>
<path d="M104.447 112.53C103.793 111.736 103.466 110.77 103.466 109.632H105.077C105.146 110.422 105.295 110.997 105.523 111.355C105.923 111.998 106.646 112.32 107.692 112.32C108.504 112.32 109.156 112.103 109.647 111.671C110.139 111.238 110.385 110.681 110.385 109.998C110.385 109.156 110.126 108.567 109.609 108.232C109.092 107.896 108.373 107.728 107.452 107.728C107.349 107.728 107.245 107.73 107.139 107.732C107.033 107.736 106.926 107.74 106.818 107.745V106.389C106.978 106.405 107.112 106.417 107.221 106.423C107.33 106.429 107.447 106.432 107.573 106.432C108.15 106.432 108.625 106.341 108.996 106.159C109.648 105.839 109.974 105.271 109.974 104.452C109.974 103.843 109.756 103.374 109.322 103.043C108.887 102.713 108.382 102.548 107.805 102.548C106.775 102.548 106.064 102.89 105.669 103.573C105.452 103.949 105.329 104.482 105.301 105.176H103.774C103.774 104.266 103.957 103.493 104.323 102.855C104.952 101.718 106.058 101.148 107.641 101.148C108.893 101.148 109.862 101.425 110.548 101.98C111.235 102.535 111.577 103.339 111.577 104.391C111.577 105.142 111.375 105.751 110.968 106.217C110.717 106.508 110.391 106.736 109.99 106.901C110.636 107.077 111.141 107.417 111.503 107.921C111.866 108.424 112.048 109.039 112.048 109.768C112.048 110.934 111.662 111.885 110.89 112.618C110.117 113.352 109.023 113.719 107.606 113.719C106.156 113.712 105.102 113.318 104.448 112.525V112.53H104.447Z" fill="#222222"/>
<path d="M119.116 113.389V110.402H113.731V108.9L119.356 101.135H120.66V109.063H122.469V110.402H120.66V113.389H119.116ZM119.09 109.063V103.513L115.155 109.063H119.09Z" fill="#222222"/>
<path d="M125.694 110.273C125.798 111.148 126.206 111.754 126.921 112.089C127.287 112.26 127.709 112.346 128.189 112.346C129.104 112.346 129.781 112.056 130.221 111.476C130.661 110.895 130.881 110.252 130.881 109.547C130.881 108.694 130.62 108.034 130.097 107.567C129.574 107.1 128.946 106.868 128.215 106.868C127.682 106.868 127.227 106.97 126.847 107.175C126.468 107.379 126.142 107.664 125.874 108.028L124.537 107.951L125.471 101.372H131.85V102.857H126.628L126.105 106.253C126.391 106.037 126.663 105.875 126.92 105.767C127.377 105.579 127.906 105.485 128.505 105.485C129.631 105.485 130.586 105.847 131.369 106.568C132.152 107.291 132.543 108.207 132.543 109.316C132.543 110.471 132.185 111.488 131.467 112.371C130.749 113.253 129.604 113.693 128.033 113.693C127.033 113.693 126.148 113.413 125.38 112.853C124.611 112.293 124.18 111.432 124.089 110.271H125.694V110.273Z" fill="#222222"/>
<path d="M141.769 102.182C142.309 102.89 142.579 103.62 142.579 104.371H141.052C140.961 103.887 140.815 103.508 140.615 103.235C140.243 102.724 139.681 102.468 138.926 102.468C138.063 102.468 137.377 102.865 136.868 103.658C136.36 104.452 136.077 105.588 136.02 107.068C136.374 106.55 136.82 106.164 137.357 105.907C137.849 105.68 138.398 105.566 139.004 105.566C140.032 105.566 140.93 105.893 141.696 106.547C142.462 107.202 142.845 108.177 142.845 109.474C142.845 110.583 142.482 111.567 141.756 112.423C141.03 113.279 139.995 113.708 138.652 113.708C137.504 113.708 136.512 113.274 135.678 112.406C134.844 111.539 134.426 110.078 134.426 108.024C134.426 106.505 134.612 105.217 134.984 104.158C135.699 102.133 137.005 101.12 138.901 101.12C140.274 101.113 141.23 101.462 141.769 102.176V102.182H141.769ZM140.611 111.525C141.015 110.981 141.216 110.34 141.216 109.6C141.216 108.974 141.036 108.378 140.676 107.813C140.316 107.247 139.661 106.963 138.712 106.963C138.049 106.963 137.468 107.183 136.968 107.621C136.467 108.059 136.217 108.718 136.217 109.601C136.217 110.374 136.445 111.024 136.9 111.551C137.354 112.077 137.984 112.34 138.79 112.34C139.602 112.34 140.209 112.064 140.612 111.524V111.525H140.611Z" fill="#222222"/>
<path d="M153.189 101.373V102.713C152.794 103.093 152.27 103.757 151.615 104.701C150.961 105.645 150.381 106.665 149.879 107.757C149.382 108.82 149.005 109.791 148.747 110.667C148.581 111.229 148.367 112.137 148.104 113.388H146.398C146.786 111.056 147.643 108.734 148.97 106.425C149.753 105.072 150.577 103.902 151.44 102.919H144.649V101.373H153.189Z" fill="#222222"/>
<path d="M161.785 106.237C161.334 105.782 161.108 105.19 161.108 104.462C161.108 103.552 161.438 102.77 162.101 102.115C162.763 101.461 163.703 101.134 164.919 101.134C166.095 101.134 167.018 101.442 167.685 102.059C168.353 102.676 168.686 103.397 168.686 104.223C168.686 104.985 168.493 105.602 168.104 106.074C167.887 106.342 167.549 106.604 167.093 106.859C167.603 107.093 168.005 107.361 168.298 107.662C168.842 108.231 169.116 108.971 169.116 109.881C169.116 110.957 168.753 111.869 168.027 112.616C167.301 113.364 166.275 113.738 164.949 113.738C163.755 113.738 162.743 113.416 161.918 112.77C161.092 112.124 160.679 111.187 160.679 109.958C160.679 109.236 160.855 108.611 161.211 108.085C161.566 107.559 162.09 107.157 162.788 106.877C162.356 106.696 162.02 106.477 161.779 106.237H161.785V106.237ZM166.768 111.765C167.24 111.381 167.476 110.808 167.476 110.045C167.476 109.254 167.232 108.654 166.747 108.244C166.261 107.834 165.637 107.63 164.878 107.63C164.14 107.63 163.539 107.839 163.073 108.256C162.607 108.675 162.374 109.254 162.374 109.993C162.374 110.631 162.587 111.181 163.014 111.645C163.439 112.109 164.098 112.34 164.99 112.34C165.707 112.333 166.3 112.137 166.775 111.758L166.768 111.765ZM166.483 105.72C166.864 105.341 167.056 104.89 167.056 104.366C167.056 103.91 166.872 103.49 166.509 103.108C166.142 102.727 165.587 102.535 164.84 102.535C164.097 102.535 163.562 102.727 163.232 103.108C162.901 103.489 162.735 103.938 162.735 104.451C162.735 105.026 162.949 105.476 163.377 105.801C163.805 106.126 164.309 106.289 164.891 106.289C165.571 106.297 166.106 106.107 166.487 105.729L166.483 105.72Z" fill="#222222"/>
<path d="M172.687 110.425C172.732 111.272 173.062 111.859 173.673 112.183C173.988 112.353 174.341 112.439 174.736 112.439C175.474 112.439 176.102 112.133 176.623 111.521C177.142 110.91 177.511 109.668 177.728 107.796C177.385 108.336 176.961 108.717 176.455 108.935C175.95 109.154 175.405 109.263 174.822 109.263C173.64 109.263 172.704 108.897 172.014 108.164C171.325 107.43 170.981 106.486 170.981 105.333C170.981 104.226 171.322 103.25 172.002 102.408C172.683 101.566 173.685 101.147 175.012 101.147C176.801 101.147 178.036 101.948 178.714 103.552C179.093 104.434 179.28 105.537 179.28 106.862C179.28 108.357 179.055 109.681 178.603 110.835C177.854 112.757 176.585 113.717 174.796 113.717C173.596 113.717 172.684 113.404 172.062 112.779C171.438 112.153 171.127 111.367 171.127 110.424H172.703H172.687V110.425ZM176.704 107.315C177.209 106.915 177.463 106.215 177.463 105.215C177.463 104.318 177.235 103.65 176.78 103.208C176.327 102.769 175.748 102.548 175.044 102.548C174.291 102.548 173.692 102.799 173.248 103.302C172.806 103.804 172.584 104.476 172.584 105.318C172.584 106.113 172.779 106.745 173.167 107.214C173.555 107.683 174.177 107.917 175.028 107.917C175.635 107.917 176.191 107.713 176.696 107.313L176.704 107.315Z" fill="#222222"/>
<path d="M188.791 103.121C189.339 104.128 189.614 105.507 189.614 107.261C189.614 108.922 189.366 110.296 188.868 111.383C188.148 112.942 186.971 113.721 185.336 113.721C183.861 113.721 182.763 113.083 182.043 111.809C181.444 110.745 181.143 109.317 181.143 107.525C181.143 106.136 181.323 104.945 181.683 103.949C182.357 102.094 183.578 101.167 185.344 101.167C186.939 101.167 188.087 101.816 188.791 103.119V103.121ZM187.239 111.263C187.715 110.557 187.952 109.244 187.952 107.321C187.952 105.932 187.781 104.79 187.438 103.894C187.094 102.998 186.428 102.55 185.438 102.55C184.527 102.55 183.861 102.976 183.44 103.826C183.019 104.677 182.809 105.93 182.809 107.585C182.809 108.831 182.944 109.833 183.213 110.59C183.625 111.745 184.33 112.322 185.326 112.322C186.131 112.322 186.767 111.972 187.244 111.267L187.239 111.263Z" fill="#222222"/>
<path d="M192.515 104.73V103.553C193.629 103.445 194.407 103.264 194.848 103.011C195.288 102.758 195.617 102.159 195.834 101.215H197.051V113.384H195.405V104.73H192.517H192.515V104.73Z" fill="#222222"/>
<path d="M202.282 110.636C202.663 109.857 203.405 109.148 204.507 108.512L206.154 107.564C206.892 107.137 207.409 106.772 207.707 106.471C208.175 105.997 208.408 105.456 208.408 104.846C208.408 104.133 208.194 103.568 207.766 103.149C207.338 102.73 206.766 102.52 206.052 102.52C204.994 102.52 204.263 102.92 203.856 103.719C203.639 104.148 203.519 104.74 203.496 105.499H201.927C201.944 104.435 202.141 103.568 202.519 102.896C203.187 101.713 204.368 101.121 206.061 101.121C207.467 101.121 208.494 101.499 209.143 102.256C209.791 103.013 210.116 103.854 210.116 104.782C210.116 105.761 209.77 106.596 209.078 107.291C208.679 107.695 207.961 108.185 206.927 108.759L205.752 109.408C205.192 109.715 204.752 110.008 204.432 110.287C203.86 110.782 203.5 111.331 203.351 111.934H210.056V113.385H201.627C201.693 112.33 201.912 111.411 202.293 110.632L202.282 110.636Z" fill="#222222"/>
<path d="M212.986 106.237C212.534 105.782 212.309 105.19 212.309 104.462C212.309 103.552 212.64 102.77 213.301 102.115C213.964 101.461 214.904 101.134 216.12 101.134C217.295 101.134 218.218 101.442 218.887 102.059C219.554 102.676 219.888 103.397 219.888 104.223C219.888 104.985 219.693 105.602 219.306 106.074C219.087 106.342 218.751 106.604 218.294 106.859C218.805 107.093 219.207 107.361 219.498 107.662C220.043 108.231 220.317 108.971 220.317 109.881C220.317 110.957 219.953 111.869 219.228 112.616C218.502 113.364 217.476 113.738 216.151 113.738C214.955 113.738 213.945 113.416 213.118 112.77C212.293 112.124 211.879 111.187 211.879 109.958C211.879 109.236 212.057 108.611 212.412 108.085C212.766 107.559 213.292 107.157 213.989 106.877C213.558 106.696 213.221 106.477 212.98 106.237H212.986V106.237ZM217.97 111.765C218.441 111.381 218.677 110.808 218.677 110.045C218.677 109.254 218.434 108.654 217.948 108.244C217.463 107.834 216.839 107.63 216.079 107.63C215.341 107.63 214.74 107.839 214.273 108.256C213.808 108.675 213.575 109.254 213.575 109.993C213.575 110.631 213.788 111.181 214.213 111.645C214.64 112.109 215.298 112.34 216.189 112.34C216.908 112.333 217.499 112.137 217.976 111.758L217.97 111.765ZM217.684 105.72C218.065 105.341 218.256 104.89 218.256 104.366C218.256 103.91 218.074 103.49 217.71 103.108C217.344 102.727 216.787 102.535 216.041 102.535C215.299 102.535 214.764 102.727 214.432 103.108C214.101 103.489 213.936 103.938 213.936 104.451C213.936 105.026 214.15 105.476 214.577 105.801C215.006 106.126 215.511 106.289 216.092 106.289C216.773 106.297 217.3 106.107 217.687 105.729L217.684 105.72Z" fill="#222222"/>
<path d="M11.5735 63.9279L6.18239 74.483C5.70086 75.4276 6.21379 76.557 7.23967 76.8445L27.956 82.6457C28.6993 82.851 29.4948 82.543 29.8926 81.8961L39.5023 66.2894L13.3112 63.0141C12.5889 62.9319 11.898 63.2913 11.5735 63.9279V63.9279ZM72.8222 74.483L67.4312 63.9279C67.1067 63.2913 66.4053 62.9217 65.683 63.0141L39.5023 66.2894L49.1016 81.9064C49.4993 82.5533 50.2949 82.8613 51.0382 82.6559L71.7545 76.8548C72.7908 76.557 73.2933 75.4276 72.8222 74.483ZM50.5671 86.0032C48.798 86.0032 47.1336 85.0791 46.2333 83.6006L39.5023 72.6553L32.7818 83.6006C31.8711 85.0894 30.2067 86.0134 28.4375 86.0134C27.9665 86.0134 27.4954 85.9518 27.0453 85.8184L12.704 81.7935V100.07C12.704 101.579 13.7508 102.893 15.2373 103.253L37.8693 108.807C38.937 109.064 40.0571 109.064 41.1144 108.807L63.7673 103.253C65.2538 102.883 66.3006 101.569 66.3006 100.07V81.7935L51.9593 85.8081C51.5092 85.9416 51.0382 86.0032 50.5671 86.0032Z" fill="#222222"/>
<defs>
<filter id="filter0_d" x="0" y="0" width="248" height="133" filterUnits="userSpaceOnUse" color-interpolation-filters="sRGB">
<feFlood flood-opacity="0" result="BackgroundImageFix"/>
<feColorMatrix in="SourceAlpha" type="matrix" values="0 0 0 0 0 0 0 0 0 0 0 0 0 0 0 0 0 0 127 0"/>
<feOffset dx="2" dy="2"/>
<feGaussianBlur stdDeviation="1"/>
<feColorMatrix type="matrix" values="0 0 0 0 0 0 0 0 0 0 0 0 0 0 0 0 0 0 0.25 0"/>
<feBlend mode="normal" in2="BackgroundImageFix" result="effect1_dropShadow"/>
<feBlend mode="normal" in="SourceGraphic" in2="effect1_dropShadow" result="shape"/>
</filter>
</defs>
</svg>
