<svg width="30" height="33" viewBox="0 0 30 33" fill="none" xmlns="http://www.w3.org/2000/svg">
<rect width="30" height="30" rx="2" transform="translate(0 1)" fill="#222222"/>
<path d="M5.6875 26H1.72266V11.207H5.6875V26ZM1.49023 7.37891C1.49023 6.78646 1.6862 6.29883 2.07812 5.91602C2.47917 5.5332 3.02148 5.3418 3.70508 5.3418C4.37956 5.3418 4.91732 5.5332 5.31836 5.91602C5.7194 6.29883 5.91992 6.78646 5.91992 7.37891C5.91992 7.98047 5.71484 8.47266 5.30469 8.85547C4.90365 9.23828 4.37044 9.42969 3.70508 9.42969C3.03971 9.42969 2.50195 9.23828 2.0918 8.85547C1.69076 8.47266 1.49023 7.98047 1.49023 7.37891Z" transform="translate(11)" fill="white"/>
</svg>
