<svg width="12" height="20" viewBox="0 0 12 20" fill="none" xmlns="http://www.w3.org/2000/svg">
<path d="M9.39709 4.4325C9.07007 1.95309 11.0556 0 11.0556 0H5.86986H5.8465H0.660755C0.660755 0 2.66965 1.95309 2.31926 4.4325C1.96887 6.91169 -0.133458 11.2941 0.00669707 13.3724C0.0300563 13.6479 0.0534156 13.9235 0.0767748 14.2238C0.0767748 14.4244 0.100134 14.6245 0.123493 14.7998C0.21693 15.5511 0.403804 16.2525 0.637396 16.9535C0.707473 17.1788 0.777551 17.4291 0.870988 17.6296C1.08122 18.0804 1.43161 18.5059 1.68856 18.9066C1.80536 19.1071 1.92215 19.2824 2.10902 19.4327C2.38933 19.658 2.693 19.758 3.02003 19.8081C3.18355 19.8333 3.34706 19.8582 3.51058 19.8834C4.02448 19.9583 4.56174 19.9583 5.07564 19.9834C5.91638 20.0086 6.73434 20.0086 7.57508 19.9585C7.78531 19.9333 7.99554 19.9333 8.20578 19.9085C8.46253 19.8836 8.71968 19.8335 8.95327 19.758C9.23358 19.6831 9.46717 19.5326 9.67741 19.3325C9.86447 19.1319 9.98127 18.9066 10.1212 18.6563C10.3081 18.3306 10.495 17.9802 10.6587 17.6296C10.9154 16.9787 11.1257 16.3274 11.2658 15.6262C11.2892 15.5261 11.3125 15.4509 11.3125 15.3508C11.4529 14.6746 11.5228 13.9985 11.5695 13.3474C11.733 11.2689 9.72412 6.91169 9.39709 4.4325Z" fill="white"/>
</svg>
